<?xml version="1.0" encoding="UTF-8"?>
<svg id="Layer_2" data-name="Layer 2" xmlns="http://www.w3.org/2000/svg" viewBox="0 0 180 180">
  <defs>
    <style>
      .cls-1 {
        fill: none;
      }

      .cls-1, .cls-2, .cls-3, .cls-4 {
        stroke-width: 0px;
      }

      .cls-2 {
        fill: #f58f80;
      }

      .cls-3 {
        fill: #fdd796;
      }

      .cls-4 {
        fill: #fab571;
      }
    </style>
  </defs>
  <g id="Layer_1-2" data-name="Layer 1">
    <rect class="cls-1" width="180" height="180"/>
    <g>
      <path class="cls-4" d="M39.19,74.37c2.3.13,4.58.77,6.65,1.92h0c6.95,3.68,9.95,12.74,6.87,19.69-4.01,10.23-18.34,12.94-25.76,4.74-2.35-2.32-7.55-7.57-9.93-9.93-.5-.49-.35-1.38.28-1.67,1.74-1.02,3.66-.48,5.36.27,6.06,2.05,13,.76,17.94-3.89.47-.39.52-1.11.08-1.54,0,0-3.38-3.39-3.38-3.39-.4-.43-1.08-.44-1.49-.03-2.77,2.55-6.53,3.41-9.98,2.58-.69-.08-1.1-.92-.76-1.51,2.95-4.75,8.58-7.62,14.11-7.25Z"/>
      <path class="cls-4" d="M105.62,39.18c-.13,2.3-.77,4.58-1.92,6.65h0c-3.68,6.95-12.74,9.95-19.69,6.87-10.23-4.01-12.94-18.34-4.74-25.76,2.32-2.35,7.57-7.55,9.93-9.93.49-.5,1.38-.35,1.67.28,1.02,1.74.48,3.66-.27,5.36-2.05,6.06-.76,13,3.89,17.94.39.47,1.11.52,1.54.08,0,0,3.39-3.38,3.39-3.38.43-.4.44-1.08.03-1.49-2.55-2.77-3.41-6.53-2.58-9.98.08-.69.92-1.1,1.51-.76,4.75,2.95,7.62,8.58,7.25,14.11Z"/>
      <path class="cls-4" d="M140.81,105.61c-2.3-.13-4.58-.77-6.65-1.92h0c-6.95-3.68-9.95-12.74-6.87-19.69,4.01-10.23,18.34-12.94,25.76-4.74,2.35,2.32,7.55,7.57,9.93,9.93.5.49.35,1.38-.28,1.67-1.74,1.02-3.66.48-5.36-.27-6.06-2.05-13-.76-17.94,3.89-.47.39-.52,1.11-.08,1.54,0,0,3.38,3.39,3.38,3.39.4.43,1.08.44,1.49.03,2.77-2.55,6.53-3.41,9.98-2.58.69.08,1.1.92.76,1.51-2.95,4.75-8.58,7.62-14.11,7.25Z"/>
      <path class="cls-2" d="M42.01,121.78c1.26-1.13,2.78-1.98,4.45-2.46h0c5.51-1.7,11.77,1.45,13.78,6.65,3.23,7.39-2.8,16.23-10.9,15.83-2.42.01-7.84,0-10.31,0-.51,0-.9-.53-.72-1.01.37-1.43,1.65-2.15,2.92-2.64,4.21-2.08,7.14-6.35,7.29-11.33.05-.45-.31-.84-.76-.84,0,0-3.51,0-3.51,0-.43-.02-.79.33-.79.76-.11,2.76-1.62,5.16-3.84,6.52-.4.32-1.05.09-1.18-.39-.94-3.99.49-8.4,3.56-11.08Z"/>
      <path class="cls-2" d="M58.21,42c1.13,1.26,1.98,2.78,2.46,4.45h0c1.7,5.51-1.45,11.77-6.65,13.78-7.39,3.23-16.23-2.8-15.83-10.9-.01-2.42,0-7.84,0-10.31,0-.51.53-.9,1.01-.72,1.43.37,2.15,1.65,2.64,2.92,2.08,4.21,6.35,7.14,11.33,7.29.45.05.84-.31.84-.76,0,0,0-3.51,0-3.51.02-.43-.33-.79-.76-.79-2.76-.11-5.16-1.62-6.52-3.84-.32-.4-.09-1.05.39-1.18,3.99-.94,8.4.49,11.08,3.56Z"/>
      <path class="cls-2" d="M137.99,58.19c-1.26,1.13-2.78,1.98-4.45,2.46h0c-5.51,1.7-11.77-1.45-13.78-6.65-3.23-7.39,2.8-16.23,10.9-15.83,2.42-.01,7.84,0,10.31,0,.51,0,.9.53.72,1.01-.37,1.43-1.65,2.15-2.92,2.64-4.21,2.08-7.14,6.35-7.29,11.33-.05.45.31.84.76.84,0,0,3.51,0,3.51,0,.43.02.79-.33.79-.76.11-2.76,1.62-5.16,3.84-6.52.4-.32,1.05-.09,1.18.39.94,3.99-.49,8.4-3.56,11.08Z"/>
      <path class="cls-2" d="M121.79,137.97c-1.13-1.26-1.98-2.78-2.46-4.45h0c-1.7-5.51,1.45-11.77,6.65-13.78,7.39-3.23,16.23,2.8,15.83,10.9.01,2.42,0,7.84,0,10.31,0,.51-.53.9-1.01.72-1.43-.37-2.15-1.65-2.64-2.92-2.08-4.21-6.35-7.14-11.33-7.29-.45-.05-.84.31-.84.76,0,0,0,3.51,0,3.51-.02.43.33.79.76.79,2.76.11,5.16,1.62,6.52,3.84.32.4.09,1.05-.39,1.18-3.99.94-8.4-.49-11.08-3.56Z"/>
      <path class="cls-3" d="M80.29,115.97c-1.27,1.13-2.79,1.98-4.46,2.47h0c-5.54,1.7-11.82-1.45-13.84-6.68-3.24-7.42,2.81-16.3,10.95-15.89,2.43-.01,7.87,0,10.35,0,.52,0,.9.53.72,1.02-.37,1.44-1.66,2.16-2.94,2.66-4.23,2.09-7.17,6.38-7.32,11.38-.05.45.31.85.76.85,0,0,3.53,0,3.53,0,.43.02.79-.33.79-.76.11-2.77,1.63-5.18,3.85-6.54.4-.32,1.05-.09,1.18.39.94,4.01-.5,8.44-3.57,11.13Z"/>
      <path class="cls-3" d="M64.02,80.28c-1.13-1.27-1.98-2.79-2.47-4.46h0c-1.7-5.54,1.45-11.82,6.68-13.84,7.42-3.24,16.3,2.81,15.89,10.95.01,2.43,0,7.87,0,10.35,0,.52-.53.9-1.02.72-1.44-.37-2.16-1.66-2.66-2.94-2.09-4.23-6.38-7.17-11.38-7.32-.45-.05-.85.31-.85.76,0,0,0,3.53,0,3.53-.02.43.33.79.76.79,2.77.11,5.18,1.63,6.54,3.85.32.4.09,1.05-.39,1.18-4.01.94-8.44-.5-11.13-3.57Z"/>
      <path class="cls-3" d="M99.71,64.01c1.27-1.13,2.79-1.98,4.46-2.47h0c5.54-1.7,11.82,1.45,13.84,6.68,3.24,7.42-2.81,16.3-10.95,15.89-2.43.01-7.87,0-10.35,0-.52,0-.9-.53-.72-1.02.37-1.44,1.66-2.16,2.94-2.66,4.23-2.09,7.17-6.38,7.32-11.38.05-.45-.31-.85-.76-.85,0,0-3.53,0-3.53,0-.43-.02-.79.33-.79.76-.11,2.77-1.63,5.18-3.85,6.54-.4.32-1.05.09-1.18-.39-.94-4.01.5-8.44,3.57-11.13Z"/>
      <path class="cls-3" d="M115.98,99.7c1.13,1.27,1.98,2.79,2.47,4.46h0c1.7,5.54-1.45,11.82-6.68,13.84-7.42,3.24-16.3-2.81-15.89-10.95-.01-2.43,0-7.87,0-10.35,0-.52.53-.9,1.02-.72,1.44.37,2.16,1.66,2.66,2.94,2.09,4.23,6.38,7.17,11.38,7.32.45.05.85-.31.85-.76,0,0,0-3.53,0-3.53.02-.43-.33-.79-.76-.79-2.77-.11-5.18-1.63-6.54-3.85-.32-.4-.09-1.05.39-1.18,4.01-.94,8.44.5,11.13,3.57Z"/>
      <path class="cls-4" d="M104.15,156.4c-.04-.07-.09-.14-.16-.2-.05-.05-.1-.09-.16-.13-.34-.25-.67-.5-1-.77-.68-.55-1.34-1.15-1.98-1.78-1.83-1.82-3.31-3.86-4.46-6.03-1.72-3.26-2.69-6.81-2.88-10.39v-15.65c0-.23-.08-.47-.24-.66-.02-.03-.04-.05-.07-.07-.2-.2-.47-.3-.73-.3h-4.95c-.27,0-.53.1-.73.3-.02.02-.05.05-.07.07-.16.19-.24.43-.24.66v13.26h-.03c0,.15.01.29.02.44.1,4.24-.87,8.5-2.9,12.34-1.15,2.18-2.64,4.23-4.48,6.07-.62.62-1.27,1.2-1.94,1.75-.33.27-.66.52-.99.77-.03.02-.06.04-.09.06-.03.02-.05.04-.08.07-.06.06-.11.13-.16.2-.1.16-.15.35-.15.54v4.1c0,.26.1.53.3.73.15.15.33.24.52.28.02,0,.03,0,.05,0h0s.04,0,.06.01c3.21.59,6.5.98,9.84,1.13,1.16.06,2.34.08,3.51.08s2.35-.03,3.51-.08c3.34-.16,6.63-.54,9.84-1.13,0,0,0,0,.01,0,.05,0,.1-.02.15-.03.01,0,.03,0,.04,0,.16-.05.31-.13.44-.26.2-.2.3-.47.3-.74v-4.1c0-.19-.05-.37-.15-.54Z"/>
    </g>
  </g>
</svg>